<svg xmlns="http://www.w3.org/2000/svg" version="1.1" xmlns:xlink="http://www.w3.org/1999/xlink" xmlns:svgjs="http://svgjs.dev/svgjs" width="1920" height="1080" preserveAspectRatio="none" viewBox="0 0 1920 1080"><g mask="url(&quot;#SvgjsMask1166&quot;)" fill="none"><rect width="1920" height="1080" x="0" y="0" fill="rgba(102, 126, 89, 1)"></rect><path d="M 0,226 C 64,183.6 192,22.2 320,14 C 448,5.8 512,152.8 640,185 C 768,217.2 832,140.2 960,175 C 1088,209.8 1152,379.8 1280,359 C 1408,338.2 1472,99.2 1600,71 C 1728,42.8 1856,188.6 1920,218L1920 1080L0 1080z" fill="rgba(244, 244, 244, 1)"></path><path d="M 0,364 C 24,410.4 72,595.2 120,596 C 168,596.8 192,366.6 240,368 C 288,369.4 312,571.8 360,603 C 408,634.2 432,505.4 480,524 C 528,542.6 552,718.4 600,696 C 648,673.6 672,428.6 720,412 C 768,395.4 792,602.6 840,613 C 888,623.4 912,471.8 960,464 C 1008,456.2 1032,565.2 1080,574 C 1128,582.8 1152,505 1200,508 C 1248,511 1272,608.6 1320,589 C 1368,569.4 1392,395.8 1440,410 C 1488,424.2 1512,669.8 1560,660 C 1608,650.2 1632,378.4 1680,361 C 1728,343.6 1752,543 1800,573 C 1848,603 1896,523.4 1920,511L1920 1080L0 1080z" fill="rgba(244, 244, 244, 1)"></path><path d="M 0,973 C 55,953.4 165,870.4 275,875 C 385,879.6 440,1013.8 550,996 C 660,978.2 715,798 825,786 C 935,774 990,926 1100,936 C 1210,946 1265,837.4 1375,836 C 1485,834.6 1541,930.8 1650,929 C 1759,927.2 1866,847.4 1920,827L1920 1080L0 1080z" fill="rgba(102, 126, 89, 1)"></path></g><defs><mask id="SvgjsMask1166"><rect width="1920" height="1080" fill="#ffffff"></rect></mask></defs></svg>